# xmcd
#
# Track frame offsets:
#	150
#	15205
#	31235
#	47972
#	61892
#	74262
#	89120
#	103462
#	121650
#	138802
#	156160
#	172130
#	187780
#	203785
#	220025
#	239837
#	260977
#	283865
#	286587
#	289325
#	291802
#	294457
#	296800
#	299335
#	302060
#	304665
#	307325
#	310057
#	312590
#
# Disc length: 4199 seconds
#
# Revision: 1
# Processed by: cddbd v1.5.2PL0 Copyright (c) Steve Scherf et al.
# Submitted via: audiograbber 1.83.01
#
DISCID=d510651d
DTITLE=Various Artist - CDX 73 December 1993
DYEAR=1993
DGENRE=Country
TTITLE0=Ashley Evans - A Whole Lot Of You
TTITLE1=Cimmaron - Blacktop Road
TTITLE2=Jimmie Dale Gilmore - I'm So Lonesome I Could Cry
TTITLE3=Tim McGraw - Indian Outlaw
TTITLE4=The Geezinslaws - I Wish I Had A Job To Shove
TTITLE5=Evangeline - Let's Go Spend Your Money Honey
TTITLE6=Martina McBride - Life #9
TTITLE7=Emmylou Harris - Thanks To You
TTITLE8=Vince Gill - Tryin' To Get Over You
TTITLE9=Tanya Tucker - We Don't have To Do This
TTITLE10=Robin Lee - When Love Comes Callin'
TTITLE11=Rocky Van Shelton - Where Was I
TTITLE12=Alan Jackson - (Who Says) You Can't Have It All
TTITLE13=Dale Daniel - You Gave Her Your Name
TTITLE14=Tim McGraw - Indian Outlaw (Dance Track)
TTITLE15=Tim McGraw - Indian Outlaw (Dance Track with Intro)
TTITLE16=Ronnie McDowell - Funky Cowboy (Dance Track)
TTITLE17=George Jones - PSA - AIDS
TTITLE18=Johnny Cash - PSA - AIDS
TTITLE19=Clint Black - PSA - AIDS
TTITLE20=John Michael Montgomery - PSA - AIDS
TTITLE21=Garth Brooks - PSA - AIDS
TTITLE22=Kathy Mattea and Joe Diffie - PSA - AIDS
TTITLE23=Marty Stuart - PSA - AIDS
TTITLE24=Lee Roy Parnell - PSA - AIDS
TTITLE25=Wynonna - PSA - AIDS
TTITLE26=Radney Foster and Charlie Daniels - PSA - AIDS
TTITLE27=Billy Ray Cyrus - PSA - AIDS
TTITLE28=Mark Miller - PSA - AIDS
EXTD=
EXTT0=
EXTT1=
EXTT2=
EXTT3=
EXTT4=
EXTT5=
EXTT6=
EXTT7=
EXTT8=
EXTT9=
EXTT10=
EXTT11=
EXTT12=
EXTT13=
EXTT14=
EXTT15=
EXTT16=
EXTT17=
EXTT18=
EXTT19=
EXTT20=
EXTT21=
EXTT22=
EXTT23=
EXTT24=
EXTT25=
EXTT26=
EXTT27=
EXTT28=
PLAYORDER=
